<?xml version="1.0" encoding="UTF-8" standalone="no"?>
<svg
   xmlns:dc="http://purl.org/dc/elements/1.1/"
   xmlns:cc="http://creativecommons.org/ns#"
   xmlns:rdf="http://www.w3.org/1999/02/22-rdf-syntax-ns#"
   xmlns:svg="http://www.w3.org/2000/svg"
   xmlns="http://www.w3.org/2000/svg"
   xmlns:xlink="http://www.w3.org/1999/xlink"
   xmlns:sodipodi="http://sodipodi.sourceforge.net/DTD/sodipodi-0.dtd"
   xmlns:inkscape="http://www.inkscape.org/namespaces/inkscape"
   version="1.1"
   id="svg2"
   width="1000"
   height="620"
   viewBox="0 0 1000 620"
   sodipodi:docname="Deane-angle.svg"
   inkscape:version="1.0.2 (e86c870879, 2021-01-15)">
  <metadata
     id="metadata8">
    <rdf:RDF>
      <cc:Work
         rdf:about="">
        <dc:format>image/svg+xml</dc:format>
        <dc:type
           rdf:resource="http://purl.org/dc/dcmitype/StillImage" />
        <dc:title />
      </cc:Work>
    </rdf:RDF>
  </metadata>
  <defs
     id="defs6" />
  <sodipodi:namedview
     pagecolor="#ffffff"
     bordercolor="#666666"
     borderopacity="1"
     objecttolerance="10"
     gridtolerance="10"
     guidetolerance="10"
     inkscape:pageopacity="0"
     inkscape:pageshadow="2"
     inkscape:window-width="1635"
     inkscape:window-height="1401"
     id="namedview4"
     showgrid="false"
     fit-margin-left="0"
     fit-margin-right="0"
     fit-margin-top="0"
     fit-margin-bottom="0"
     inkscape:zoom="1.8473111"
     inkscape:cx="319.81323"
     inkscape:cy="317.03102"
     inkscape:window-x="0"
     inkscape:window-y="18"
     inkscape:window-maximized="0"
     inkscape:current-layer="g10"
     lock-margins="false"
     inkscape:document-rotation="0" />
  <g
     inkscape:groupmode="layer"
     id="layer1"
     inkscape:label="Base">
    <image
       sodipodi:absref="/home/debenham/Nextcloud/Documents/Floorplan/Deane-angle.png"
       xlink:href="/local/floorplan/Deane-angle.png"
       id="image12"
       preserveAspectRatio="none"
       height="620"
       width="1000" />
  </g>
  <g
     inkscape:groupmode="layer"
     inkscape:label="Rooms"
     id="g10">
    <path
       style="fill:#000000;stroke:none;stroke-width:1px;stroke-linecap:butt;stroke-linejoin:miter;stroke-opacity:1;fill-opacity:1;opacity:0.5"
       d="m 733.76658,330.92449 -52.41548,-26.49971 -62.71151,-31.70508 -9.80845,13.79336 -14.43796,31.14683 -5.47729,6.27684 120.15116,64.85903 z"
       id="light.entry_lights"
       sodipodi:nodetypes="cccccccc" />
    <path
       style="fill:#000000;stroke:none;stroke-width:1px;stroke-linecap:butt;stroke-linejoin:miter;stroke-opacity:1;fill-opacity:1;opacity:0.5"
       d="m 756.57177,158.55471 226.91389,106.56459 -68.81848,175.17447 -186.09549,-96.14468 5.19489,-13.2246 -52.23895,-26.36373 z"
       id="light.garage_lights" />
    <path
       style="fill:#000000;stroke:none;stroke-width:1px;stroke-linecap:butt;stroke-linejoin:miter;stroke-opacity:1;fill-opacity:1;opacity:0.5"
       d="m 557.41175,259.86612 51.41939,26.64694 9.80845,-13.79336 62.88804,31.84106 75.04414,-146.00605 -113.54433,-52.64542 z"
       id="light.loungeroom_lights" />
    <path
       style="fill:#000000;stroke:none;stroke-width:1px;stroke-linecap:butt;stroke-linejoin:miter;stroke-opacity:1;fill-opacity:1;opacity:0.5"
       d="m 588.91589,323.93673 -5.67446,16.20692 -21.15433,38.43091 -40.50089,73.99945 117.86194,67.1914 59.41213,-120.56104 10.20677,-10.40861 z"
       id="light.bedroom_lights" />
    <path
       style="fill:#000000;stroke:none;stroke-width:1px;stroke-linecap:butt;stroke-linejoin:miter;stroke-opacity:1;fill-opacity:1;opacity:0.5"
       d="m 497.28615,345.07084 63.9102,33.90271 22.04508,-38.8299 5.67446,-16.20692 5.47729,-6.27684 -66.86215,-34.16675 -2.72031,14.83167 z"
       id="light.robe_lights" />
    <path
       style="fill:#000000;stroke:none;stroke-width:1px;stroke-linecap:butt;stroke-linejoin:miter;stroke-opacity:1;fill-opacity:1;opacity:0.5"
       d="m 453.64114,416.37687 67.94507,36.19714 39.61014,-73.60046 -63.9102,-33.90271 z"
       id="light.ensuite_lights" />
    <path
       style="fill:#000000;stroke:none;stroke-width:1px;stroke-linecap:butt;stroke-linejoin:miter;stroke-opacity:1;fill-opacity:1;opacity:0.5"
       d="m 521.38255,142.13682 80.80163,38.6234 -44.77243,79.1059 -64.23465,-32.54623 9.6488,-12.94484 -21.13232,-10.73972 z"
       id="light.lucas_lights" />
    <path
       style="fill:#000000;stroke:none;stroke-width:1px;stroke-linecap:butt;stroke-linejoin:miter;stroke-opacity:1;fill-opacity:1;opacity:0.5"
       d="m 392.29917,177.16801 41.95651,20.95545 9.86065,-13.70684 37.57725,19.21871 39.68897,-61.49851 -77.97202,-38.22949 z"
       id="light.xander_lights" />
    <path
       style="fill:#000000;stroke:none;stroke-width:1px;stroke-linecap:butt;stroke-linejoin:miter;stroke-opacity:1;fill-opacity:1;opacity:0.5"
       d="m 408.75851,361.5652 60.41655,31.99835 28.11109,-48.49271 27.52457,-46.74603 2.72031,-14.83167 -63.70151,-31.8016 0.80141,15.19622 z"
       id="light.bathroom_lights" />
    <path
       style="opacity:0.5;fill:#000000;fill-opacity:1;stroke:none;stroke-width:1px;stroke-linecap:butt;stroke-linejoin:miter;stroke-opacity:1"
       d="m 324.58607,313.73927 19.71957,11.20446 15.82925,8.99402 20.56352,11.68398 28.0601,15.94347 55.87242,-94.67744 -0.80141,-15.19622 -55.40577,-29.78126 -9.7281,13.57848 -27.73245,-16.35916 3.50918,21.1977 z"
       id="light.craftroom_lights"
       sodipodi:nodetypes="cccccccccccc" />
    <path
       style="fill:#000000;stroke:none;stroke-width:1px;stroke-linecap:butt;stroke-linejoin:miter;stroke-opacity:1;fill-opacity:1;opacity:0.5"
       d="m 293.13685,161.39927 -14.51166,32.16854 7.99736,13.85651 52.23806,26.39827 7.86722,-11.54107 -6.46395,-18.24436 8.06817,-12.80505 z"
       id="light.pantry_lights" />
    <path
       style="fill:#000000;stroke:none;stroke-width:1px;stroke-linecap:butt;stroke-linejoin:miter;stroke-opacity:1;fill-opacity:1;opacity:0.5"
       d="m 240.68503,266.99372 37.94016,-73.42591 7.99736,13.85651 52.23806,26.39827 7.86722,-11.54107 -6.46395,-18.24436 30.69932,15.09244 3.50918,21.1977 -49.88631,73.41197 z"
       id="light.office_lights" />
    <path
       style="fill:#000000;stroke:none;stroke-width:1px;stroke-linecap:butt;stroke-linejoin:miter;stroke-opacity:1;fill-opacity:1;opacity:0.5"
       d="m 378.55374,75.137022 7.66151,29.858608 -44.8095,62.94381 30.86411,40.85231 18.27846,9.71343 -11.9433,-47.48899 13.69415,6.15182 51.11136,-73.26068 z"
       id="light.kitchen_lights" />
    <path
       style="fill:#000000;stroke:none;stroke-width:1px;stroke-linecap:butt;stroke-linejoin:miter;stroke-opacity:1;fill-opacity:1;opacity:0.5"
       d="m 594.39318,317.65989 14.43796,-31.14683 -115.65404,-59.19317 9.6488,-12.94484 -21.13232,-10.73972 -37.57725,-19.21871 -9.86065,13.70684 -55.65066,-27.10727 11.9433,47.48899 -18.27846,-9.71343 -30.86411,-40.85231 6.9263,23.29267 -8.06817,12.80505 30.69932,15.09244 27.73245,16.35916 9.7281,-13.57848 55.40577,29.78126 63.70151,31.8016 66.86215,34.16675 14.43796,-31.14683 z"
       id="light.hall_lights" />
    <path
       style="fill:#000000;stroke:none;stroke-width:1px;stroke-linecap:butt;stroke-linejoin:miter;stroke-opacity:1;fill-opacity:1;opacity:0.5"
       d="m 171.13672,255.0302 55.06655,33.3072 14.48176,-21.34368 29.83855,-56.48548 -26.73907,-11.33166 -29.67643,-17.84527 z"
       id="light.laundry_lights" />
    <path
       style="fill:#000000;stroke:none;stroke-width:1px;stroke-linecap:butt;stroke-linejoin:miter;stroke-opacity:1;fill-opacity:1;opacity:0.5"
       d="m 231.80817,137.95521 33.64063,18.87585 -21.66429,42.34552 -29.67643,-17.84527 z"
       id="light.toilet_lights" />
    <path
       style="fill:#000000;stroke:none;stroke-width:1px;stroke-linecap:butt;stroke-linejoin:miter;stroke-opacity:1;fill-opacity:1;opacity:0.5"
       d="m 265.4488,156.83106 17.90643,31.37155 -12.83165,22.30563 -26.73907,-11.33166 z"
       id="light.smallhall_lights" />
    <path
       style="fill:#000000;stroke:none;stroke-width:1px;stroke-linecap:butt;stroke-linejoin:miter;stroke-opacity:1;fill-opacity:1;opacity:0.5"
       d="m 232.63278,80.573803 23.00998,46.283837 37.49409,34.54163 55.1952,29.83284 -6.9263,-23.29267 44.8095,-62.94381 -7.66151,-29.858608 16.45775,-21.6618 -89.49997,-41.925529 z"
       id="light.dining_lights" />
    <path
       style="fill:#000000;stroke:none;stroke-width:1px;stroke-linecap:butt;stroke-linejoin:miter;stroke-opacity:1;fill-opacity:1;opacity:0.5"
       d="m 180.54932,52.605989 52.08346,27.967814 c 0,0 23.00998,46.283837 23.00998,46.283837 l 37.49409,34.54163 -9.78162,26.80334 -17.90643,-31.37155 -33.64063,-18.87585 -17.70009,43.3761 L 171.13672,255.0302 37.31592,182.30282 97.123688,69.096253 135.81075,91.2352 Z"
       id="light.livingroom_lights" />
    <path
       style="fill:#000000;stroke:none;stroke-width:1px;stroke-linecap:butt;stroke-linejoin:miter;stroke-opacity:1;fill-opacity:1;opacity:0.5"
       d="m 728.57169,344.14909 187.87132,103.15864 -32.93315,12.8408 -63.04474,159.70723 -38.26825,0.74399 -112.28631,-64.26795 -30.46241,-36.56639 59.41213,-120.56104 10.20677,-10.40861 z"
       id="light.driveway_lights" />
  </g>
</svg>
